<svg width="1600" height="1000" viewBox="0 0 1600 1000" fill="none" xmlns="http://www.w3.org/2000/svg">
  <defs>
    <linearGradient id="bg" x1="186" y1="120" x2="1422" y2="878" gradientUnits="userSpaceOnUse">
      <stop stop-color="#F9FDFC"/>
      <stop offset="1" stop-color="#EBF7F2"/>
    </linearGradient>
    <linearGradient id="screen" x1="530" y1="366" x2="1062" y2="786" gradientUnits="userSpaceOnUse">
      <stop stop-color="#104C6D"/>
      <stop offset="1" stop-color="#0A2945"/>
    </linearGradient>
    <linearGradient id="play" x1="726" y1="500" x2="924" y2="650" gradientUnits="userSpaceOnUse">
      <stop stop-color="#63D5A8"/>
      <stop offset="1" stop-color="#169167"/>
    </linearGradient>
    <filter id="shadow" x="338" y="278" width="924" height="620" filterUnits="userSpaceOnUse" color-interpolation-filters="sRGB">
      <feFlood flood-opacity="0" result="BackgroundImageFix"/>
      <feColorMatrix in="SourceAlpha" type="matrix" values="0 0 0 0 0 0 0 0 0 0 0 0 0 0 0 0 0 0 127 0" result="hardAlpha"/>
      <feOffset dy="20"/>
      <feGaussianBlur stdDeviation="28"/>
      <feColorMatrix type="matrix" values="0 0 0 0 0.0431373 0 0 0 0 0.160784 0 0 0 0 0.254902 0 0 0 0.18 0"/>
      <feBlend mode="normal" in2="BackgroundImageFix" result="effect1_dropShadow_0_1"/>
      <feBlend mode="normal" in="SourceGraphic" in2="effect1_dropShadow_0_1" result="shape"/>
    </filter>
  </defs>

  <rect width="1600" height="1000" rx="64" fill="url(#bg)"/>
  <circle cx="326" cy="590" r="220" fill="#D7F1E6" fill-opacity="0.8"/>
  <circle cx="1220" cy="570" r="220" fill="#D8F2E7" fill-opacity="0.8"/>
  <circle cx="820" cy="422" r="298" fill="#D8F1E7" fill-opacity="0.72"/>
  <ellipse cx="804" cy="904" rx="612" ry="36" fill="#D8F1E6"/>
  <path d="M120 860H1480" stroke="#2D7E7A" stroke-width="3" stroke-linecap="round"/>

  <circle cx="804" cy="232" r="24" fill="#3FB68F"/>
  <path d="M804 258V346" stroke="#2FA07B" stroke-width="7" stroke-linecap="round"/>
  <path d="M712 198C760 150 848 150 896 198" stroke="#54C89D" stroke-width="24" stroke-linecap="round"/>
  <path d="M744 256C778 222 830 222 864 256" stroke="#49C198" stroke-width="24" stroke-linecap="round"/>
  <path d="M660 138C744 54 864 54 948 138" stroke="#69D4A7" stroke-width="24" stroke-linecap="round"/>

  <g filter="url(#shadow)">
    <rect x="470" y="340" width="660" height="416" rx="28" fill="url(#screen)"/>
    <rect x="502" y="372" width="596" height="352" rx="18" fill="#0A3B5C"/>
    <rect x="548" y="418" width="156" height="108" rx="12" fill="#2CA989" fill-opacity="0.45"/>
    <rect x="732" y="418" width="258" height="154" rx="16" fill="url(#play)"/>
    <rect x="1016" y="418" width="56" height="56" rx="10" fill="#2A8C80"/>
    <rect x="1016" y="498" width="56" height="56" rx="10" fill="#5AB7D8"/>
    <rect x="1016" y="578" width="56" height="56" rx="10" fill="#E3BF56"/>
    <rect x="548" y="598" width="78" height="56" rx="10" fill="#2AC291"/>
    <rect x="646" y="598" width="78" height="56" rx="10" fill="#E6C254"/>
    <rect x="744" y="598" width="78" height="56" rx="10" fill="#67D3AB"/>
    <rect x="842" y="598" width="78" height="56" rx="10" fill="#5DB6D6"/>
    <rect x="940" y="598" width="132" height="56" rx="10" fill="#1F8A6D"/>
    <circle cx="856" cy="496" r="76" fill="white" fill-opacity="0.9"/>
    <path d="M832 456L894 496L832 536V456Z" fill="#1C9A6C"/>
  </g>

  <rect x="620" y="756" width="360" height="24" rx="12" fill="#081723" fill-opacity="0.25"/>

  <g fill="#2C8B6A">
    <ellipse cx="264" cy="852" rx="72" ry="40"/>
    <ellipse cx="340" cy="848" rx="88" ry="46"/>
    <ellipse cx="1268" cy="850" rx="78" ry="44"/>
    <ellipse cx="1350" cy="850" rx="96" ry="48"/>
  </g>
  <g fill="#7FD9B6">
    <ellipse cx="242" cy="824" rx="38" ry="24"/>
    <ellipse cx="1378" cy="826" rx="42" ry="24"/>
  </g>
  <path d="M238 822C254 794 278 772 300 764C326 774 344 794 358 822H238Z" fill="#61C8A4"/>
  <path d="M1370 824C1386 796 1410 774 1432 766C1458 776 1476 796 1490 824H1370Z" fill="#61C8A4"/>
  <path d="M300 770V852" stroke="#0A5067" stroke-width="6" stroke-linecap="round"/>
  <path d="M1432 772V854" stroke="#0A5067" stroke-width="6" stroke-linecap="round"/>
  <path d="M300 812L274 786" stroke="#0A5067" stroke-width="5" stroke-linecap="round"/>
  <path d="M300 812L326 786" stroke="#0A5067" stroke-width="5" stroke-linecap="round"/>
  <path d="M1432 814L1406 788" stroke="#0A5067" stroke-width="5" stroke-linecap="round"/>
  <path d="M1432 814L1458 788" stroke="#0A5067" stroke-width="5" stroke-linecap="round"/>
</svg>
