<svg width="960" height="480" viewBox="0 0 960 480" fill="none" xmlns="http://www.w3.org/2000/svg">
  <defs>
    <linearGradient id="bg" x1="56" y1="18" x2="924" y2="464" gradientUnits="userSpaceOnUse">
      <stop stop-color="#1A3D63"/>
      <stop offset="0.5" stop-color="#186F63"/>
      <stop offset="1" stop-color="#2E9649"/>
    </linearGradient>
  </defs>
  <rect width="960" height="480" rx="28" fill="url(#bg)"/>
  <circle cx="168" cy="104" r="112" fill="#FFFFFF" fill-opacity="0.08"/>
  <circle cx="794" cy="364" r="162" fill="#FFFFFF" fill-opacity="0.08"/>

  <g opacity="0.9">
    <rect x="128" y="248" width="168" height="144" rx="20" fill="#EBFFF4" fill-opacity="0.2"/>
    <rect x="664" y="214" width="176" height="178" rx="20" fill="#EBFFF4" fill-opacity="0.2"/>
  </g>

  <g>
    <rect x="322" y="132" width="316" height="236" rx="24" fill="#F0FFF6" fill-opacity="0.18" stroke="#E7FFF1" stroke-opacity="0.45" stroke-width="2"/>
    <rect x="352" y="278" width="256" height="56" rx="18" fill="#ECFFF5" fill-opacity="0.52"/>
    <rect x="406" y="352" width="148" height="16" rx="8" fill="#ECFFF5" fill-opacity="0.6"/>
  </g>

  <g stroke="#ECFFF5" stroke-width="7" stroke-linecap="round">
    <path d="M398 244C417 220 446 206 480 206C514 206 543 220 562 244"/>
    <path d="M428 264C440 250 459 242 480 242C501 242 520 250 532 264"/>
  </g>
  <circle cx="480" cy="286" r="10" fill="#ECFFF5"/>

  <g stroke="#ECFFF5" stroke-opacity="0.82" stroke-width="3">
    <path d="M186 280H238M186 302H248M186 324H228"/>
    <path d="M704 246H792M704 270H816M704 294H778M704 318H806"/>
  </g>
</svg>
