<svg width="1600" height="1000" viewBox="0 0 1600 1000" fill="none" xmlns="http://www.w3.org/2000/svg">
  <defs>
    <linearGradient id="bg" x1="220" y1="120" x2="1380" y2="880" gradientUnits="userSpaceOnUse">
      <stop stop-color="#F9FDFC"/>
      <stop offset="1" stop-color="#EDF8F3"/>
    </linearGradient>
    <linearGradient id="roof" x1="544" y1="452" x2="1012" y2="744" gradientUnits="userSpaceOnUse">
      <stop stop-color="#0F4665"/>
      <stop offset="1" stop-color="#0A2A46"/>
    </linearGradient>
    <linearGradient id="wall" x1="548" y1="454" x2="966" y2="798" gradientUnits="userSpaceOnUse">
      <stop stop-color="#FDFEFE"/>
      <stop offset="1" stop-color="#D8F4E6"/>
    </linearGradient>
    <filter id="shadow" x="360" y="318" width="900" height="586" filterUnits="userSpaceOnUse" color-interpolation-filters="sRGB">
      <feFlood flood-opacity="0" result="BackgroundImageFix"/>
      <feColorMatrix in="SourceAlpha" type="matrix" values="0 0 0 0 0 0 0 0 0 0 0 0 0 0 0 0 0 0 127 0" result="hardAlpha"/>
      <feOffset dy="20"/>
      <feGaussianBlur stdDeviation="28"/>
      <feColorMatrix type="matrix" values="0 0 0 0 0.0431373 0 0 0 0 0.160784 0 0 0 0 0.254902 0 0 0 0.16 0"/>
      <feBlend mode="normal" in2="BackgroundImageFix" result="effect1_dropShadow_0_1"/>
      <feBlend mode="normal" in="SourceGraphic" in2="effect1_dropShadow_0_1" result="shape"/>
    </filter>
  </defs>

  <rect width="1600" height="1000" rx="64" fill="url(#bg)"/>
  <circle cx="804" cy="372" r="326" fill="#D8F1E6" fill-opacity="0.72"/>
  <circle cx="396" cy="532" r="210" fill="#D6F0E5" fill-opacity="0.72"/>
  <circle cx="1204" cy="522" r="228" fill="#D7F1E6" fill-opacity="0.72"/>
  <ellipse cx="804" cy="876" rx="528" ry="52" fill="#D4EEE2"/>

  <path d="M804 292V224" stroke="#2FA07B" stroke-width="7" stroke-linecap="round"/>
  <circle cx="804" cy="204" r="24" fill="#3FB68F"/>
  <path d="M714 168C762 120 846 120 894 168" stroke="#51C79C" stroke-width="24" stroke-linecap="round"/>
  <path d="M746 226C780 192 828 192 862 226" stroke="#47BF98" stroke-width="24" stroke-linecap="round"/>
  <path d="M662 110C742 30 866 30 946 110" stroke="#6AD5A7" stroke-width="24" stroke-linecap="round"/>
  <path d="M540 834C540 666 674 530 840 530C1002 530 1142 664 1142 834" stroke="#8FE8C6" stroke-width="18" stroke-linecap="round" opacity="0.7"/>
  <path d="M470 836C470 620 646 448 866 448C1088 448 1272 626 1272 836" stroke="#AEEFD4" stroke-width="18" stroke-linecap="round" opacity="0.62"/>

  <g filter="url(#shadow)">
    <path d="M490 614L782 372C796 360 816 360 830 372L1122 614V640H490V614Z" fill="url(#roof)"/>
    <path d="M620 478L776 338C790 326 810 326 824 338L980 478V500H620V478Z" fill="#156884"/>
    <path d="M520 634H1092V830H520V634Z" fill="url(#wall)"/>
    <path d="M588 630L806 430L1024 630V662H588V630Z" fill="url(#wall)"/>
    <path d="M508 620L806 364L1104 620" stroke="#0B506C" stroke-width="18" stroke-linecap="round" stroke-linejoin="round"/>
    <path d="M616 492L806 330L996 492" stroke="#0F8B83" stroke-width="14" stroke-linecap="round" stroke-linejoin="round"/>
    <rect x="562" y="658" width="194" height="118" rx="12" fill="#0F5168"/>
    <rect x="580" y="676" width="158" height="82" rx="10" fill="#52C9A0"/>
    <path d="M658 676V758" stroke="#0E6079" stroke-width="4"/>
    <path d="M580 718H738" stroke="#0E6079" stroke-width="4"/>
    <rect x="856" y="658" width="162" height="92" rx="12" fill="#0F5168"/>
    <rect x="872" y="674" width="130" height="60" rx="10" fill="#63D6AB"/>
    <path d="M936 674V734" stroke="#0E6079" stroke-width="4"/>
    <rect x="822" y="564" width="126" height="90" rx="12" fill="#0F5168"/>
    <rect x="836" y="578" width="98" height="62" rx="10" fill="#58CCA4"/>
    <path d="M886 578V640" stroke="#0E6079" stroke-width="4"/>
    <rect x="742" y="690" width="108" height="140" rx="10" fill="#FDFEFE"/>
    <rect x="760" y="710" width="72" height="120" rx="8" fill="#0B4D67"/>
    <rect x="780" y="782" width="16" height="48" rx="8" fill="#10314B"/>
    <rect x="832" y="782" width="18" height="12" rx="6" fill="#C7F0E1"/>
    <rect x="1104" y="434" width="24" height="76" rx="10" fill="#0E425A"/>
    <rect x="1098" y="412" width="36" height="32" rx="10" fill="#104F6D"/>
  </g>

  <g fill="#22775E">
    <ellipse cx="466" cy="842" rx="58" ry="42"/>
    <ellipse cx="534" cy="846" rx="84" ry="48"/>
    <ellipse cx="612" cy="844" rx="74" ry="40"/>
    <ellipse cx="1010" cy="844" rx="70" ry="42"/>
    <ellipse cx="1090" cy="844" rx="88" ry="50"/>
    <ellipse cx="1176" cy="844" rx="82" ry="44"/>
  </g>
  <g fill="#3AA873">
    <ellipse cx="438" cy="816" rx="46" ry="30"/>
    <ellipse cx="568" cy="808" rx="44" ry="30"/>
    <ellipse cx="1046" cy="810" rx="44" ry="30"/>
    <ellipse cx="1186" cy="816" rx="46" ry="30"/>
  </g>
  <path d="M414 812C434 780 460 756 486 748C516 758 540 784 556 812H414Z" fill="#5DC2A0"/>
  <path d="M1154 812C1174 780 1200 756 1226 748C1256 758 1280 784 1296 812H1154Z" fill="#5DC2A0"/>
  <path d="M486 756V842" stroke="#0A5067" stroke-width="6" stroke-linecap="round"/>
  <path d="M1226 756V842" stroke="#0A5067" stroke-width="6" stroke-linecap="round"/>
  <path d="M486 798L456 768" stroke="#0A5067" stroke-width="5" stroke-linecap="round"/>
  <path d="M486 798L516 768" stroke="#0A5067" stroke-width="5" stroke-linecap="round"/>
  <path d="M1226 798L1196 768" stroke="#0A5067" stroke-width="5" stroke-linecap="round"/>
  <path d="M1226 798L1256 768" stroke="#0A5067" stroke-width="5" stroke-linecap="round"/>
</svg>
