<svg width="1600" height="1000" viewBox="0 0 1600 1000" fill="none" xmlns="http://www.w3.org/2000/svg">
  <defs>
    <linearGradient id="bg" x1="170" y1="120" x2="1430" y2="880" gradientUnits="userSpaceOnUse">
      <stop stop-color="#F9FDFB"/>
      <stop offset="1" stop-color="#ECF7F2"/>
    </linearGradient>
    <linearGradient id="teal" x1="515" y1="354" x2="1010" y2="814" gradientUnits="userSpaceOnUse">
      <stop stop-color="#2FA07B"/>
      <stop offset="1" stop-color="#0A5A64"/>
    </linearGradient>
    <linearGradient id="mint" x1="358" y1="384" x2="1242" y2="844" gradientUnits="userSpaceOnUse">
      <stop stop-color="#D9F3E8"/>
      <stop offset="1" stop-color="#BFE8D5"/>
    </linearGradient>
    <filter id="shadow" x="292" y="216" width="1016" height="690" filterUnits="userSpaceOnUse" color-interpolation-filters="sRGB">
      <feFlood flood-opacity="0" result="BackgroundImageFix"/>
      <feColorMatrix in="SourceAlpha" type="matrix" values="0 0 0 0 0 0 0 0 0 0 0 0 0 0 0 0 0 0 127 0" result="hardAlpha"/>
      <feOffset dy="20"/>
      <feGaussianBlur stdDeviation="26"/>
      <feColorMatrix type="matrix" values="0 0 0 0 0.0431373 0 0 0 0 0.160784 0 0 0 0 0.254902 0 0 0 0.18 0"/>
      <feBlend mode="normal" in2="BackgroundImageFix" result="effect1_dropShadow_0_1"/>
      <feBlend mode="normal" in="SourceGraphic" in2="effect1_dropShadow_0_1" result="shape"/>
    </filter>
  </defs>

  <rect width="1600" height="1000" rx="64" fill="url(#bg)"/>
  <circle cx="292" cy="758" r="238" fill="#D8EFE5" fill-opacity="0.78"/>
  <circle cx="1168" cy="290" r="230" fill="#D6F1E7" fill-opacity="0.72"/>
  <path d="M332 856C430 714 566 620 798 620C1030 620 1158 710 1268 856H332Z" fill="url(#mint)"/>
  <ellipse cx="804" cy="900" rx="470" ry="46" fill="#D7EEE5"/>
  <path d="M120 820H1480" stroke="#2D7E7A" stroke-width="3" stroke-linecap="round"/>

  <g filter="url(#shadow)">
    <rect x="418" y="346" width="764" height="430" rx="20" fill="#E8F6EF"/>
    <rect x="598" y="268" width="404" height="520" rx="24" fill="url(#teal)"/>
    <rect x="510" y="412" width="158" height="364" rx="16" fill="#7DCCB4"/>
    <rect x="932" y="412" width="158" height="364" rx="16" fill="#7DCCB4"/>
    <rect x="1010" y="426" width="80" height="338" rx="12" fill="#0C495D" fill-opacity="0.6"/>
    <rect x="510" y="426" width="80" height="338" rx="12" fill="#B9E7D7"/>
    <rect x="748" y="706" width="102" height="70" rx="10" fill="#F7FFFB"/>
    <rect x="706" y="760" width="186" height="16" rx="8" fill="#ECF8F1"/>
    <rect x="726" y="664" width="146" height="46" rx="12" fill="#FDFEFE"/>
    <rect x="744" y="560" width="40" height="58" fill="#C8EFE0"/>
    <rect x="808" y="560" width="40" height="58" fill="#C8EFE0"/>
    <rect x="680" y="560" width="40" height="58" fill="#F4FEF9"/>
    <rect x="872" y="560" width="40" height="58" fill="#F4FEF9"/>
    <rect x="744" y="470" width="40" height="58" fill="#E6FAF0"/>
    <rect x="808" y="470" width="40" height="58" fill="#7AC6B1"/>
    <rect x="680" y="470" width="40" height="58" fill="#F4FEF9"/>
    <rect x="872" y="470" width="40" height="58" fill="#F4FEF9"/>
    <rect x="744" y="380" width="40" height="58" fill="#E6FAF0"/>
    <rect x="808" y="380" width="40" height="58" fill="#7AC6B1"/>
    <rect x="680" y="380" width="40" height="58" fill="#F4FEF9"/>
    <rect x="872" y="380" width="40" height="58" fill="#F4FEF9"/>
    <rect x="540" y="474" width="56" height="74" fill="#85D2B9"/>
    <rect x="622" y="474" width="56" height="74" fill="#73C5AF"/>
    <rect x="1004" y="474" width="56" height="74" fill="#73C5AF"/>
    <rect x="1086" y="474" width="56" height="74" fill="#0E5368"/>
    <rect x="540" y="582" width="56" height="74" fill="#73C5AF"/>
    <rect x="622" y="582" width="56" height="74" fill="#6ABAA7"/>
    <rect x="1004" y="582" width="56" height="74" fill="#6ABAA7"/>
    <rect x="1086" y="582" width="56" height="74" fill="#0E5368"/>
  </g>

  <circle cx="800" cy="248" r="24" fill="#40B690"/>
  <path d="M800 272V344" stroke="#2D7E7A" stroke-width="6" stroke-linecap="round"/>
  <path d="M710 214C758 166 842 166 890 214" stroke="#49C096" stroke-width="24" stroke-linecap="round"/>
  <path d="M744 272C774 242 826 242 856 272" stroke="#49C096" stroke-width="24" stroke-linecap="round"/>
  <path d="M670 154C744 80 856 80 930 154" stroke="#54C89D" stroke-width="24" stroke-linecap="round"/>

  <g fill="#3AA05C">
    <ellipse cx="466" cy="760" rx="62" ry="44"/>
    <ellipse cx="540" cy="760" rx="80" ry="44"/>
    <ellipse cx="614" cy="762" rx="76" ry="38"/>
    <ellipse cx="978" cy="760" rx="68" ry="42"/>
    <ellipse cx="1050" cy="760" rx="86" ry="46"/>
    <ellipse cx="1128" cy="762" rx="78" ry="38"/>
  </g>
  <g fill="#1B6C5D">
    <ellipse cx="506" cy="730" rx="54" ry="34"/>
    <ellipse cx="1086" cy="730" rx="54" ry="34"/>
  </g>
  <path d="M430 764C448 732 480 704 506 694C536 704 560 732 576 764H430Z" fill="#5DC2A0"/>
  <path d="M1036 764C1054 732 1086 704 1112 694C1142 704 1166 732 1182 764H1036Z" fill="#5DC2A0"/>
  <path d="M508 704V786" stroke="#0A5067" stroke-width="6" stroke-linecap="round"/>
  <path d="M1114 704V786" stroke="#0A5067" stroke-width="6" stroke-linecap="round"/>
  <path d="M508 748L478 718" stroke="#0A5067" stroke-width="5" stroke-linecap="round"/>
  <path d="M508 748L538 718" stroke="#0A5067" stroke-width="5" stroke-linecap="round"/>
  <path d="M1114 748L1084 718" stroke="#0A5067" stroke-width="5" stroke-linecap="round"/>
  <path d="M1114 748L1144 718" stroke="#0A5067" stroke-width="5" stroke-linecap="round"/>
</svg>
